<svg xmlns="http://www.w3.org/2000/svg" width="7" height="12" viewBox="0 0 7 12" fill="none">
  <path d="M5.49398 6L0.540317 0.909247C0.499533 0.868222 0.46729 0.819516 0.445453 0.765947C0.423617 0.712379 0.41262 0.655011 0.413101 0.597165C0.413582 0.539319 0.425529 0.482142 0.448253 0.428944C0.470976 0.375745 0.504025 0.327582 0.545485 0.28724C0.586945 0.246898 0.635994 0.215179 0.689794 0.193918C0.743594 0.172658 0.801076 0.162278 0.858914 0.163379C0.916752 0.16448 0.973797 0.177041 1.02675 0.200334C1.0797 0.223627 1.12751 0.25719 1.1674 0.29908L6.4174 5.69491C6.49686 5.77659 6.54132 5.88604 6.54132 6C6.54132 6.11395 6.49686 6.22341 6.4174 6.30508L1.1674 11.7009C1.12751 11.7428 1.0797 11.7764 1.02675 11.7997C0.973797 11.823 0.916752 11.8355 0.858914 11.8366C0.801076 11.8377 0.743594 11.8273 0.689794 11.8061C0.635994 11.7848 0.586945 11.7531 0.545485 11.7128C0.504025 11.6724 0.470976 11.6242 0.448253 11.5711C0.425529 11.5179 0.413582 11.4607 0.413101 11.4028C0.41262 11.345 0.423617 11.2876 0.445453 11.234C0.46729 11.1805 0.499533 11.1318 0.540317 11.0907L5.49398 6Z" fill="black"/>
</svg>