<svg xmlns="http://www.w3.org/2000/svg" width="18" height="18" viewBox="0 0 18 18" fill="none">
  <path d="M7.3125 14.6194C6.49975 14.6203 5.69482 14.4607 4.94386 14.1499C4.19289 13.8391 3.51065 13.3831 2.93625 12.8081C1.76625 11.6381 1.125 10.0856 1.125 8.43188C1.125 6.77813 1.76625 5.22563 2.93625 4.05563C5.34375 1.64812 9.27 1.64812 11.6888 4.05563C12.8588 5.22563 13.5 6.77813 13.5 8.43188C13.5 10.0856 12.8588 11.6381 11.6888 12.8081C11.1144 13.3831 10.4321 13.8391 9.68114 14.1499C8.93017 14.4607 8.12525 14.6203 7.3125 14.6194ZM7.3125 3.36938C6.01875 3.36938 4.725 3.86438 3.735 4.85438C2.77875 5.81063 2.25 7.08188 2.25 8.43188C2.25 9.78188 2.77875 11.0531 3.735 12.0094C4.68553 12.9549 5.97175 13.4858 7.3125 13.4858C8.65325 13.4858 9.93947 12.9549 10.89 12.0094C11.8463 11.0531 12.375 9.78188 12.375 8.43188C12.375 7.08188 11.8463 5.81063 10.89 4.85438C10.421 4.38329 9.86346 4.00958 9.2495 3.75473C8.63554 3.49988 7.97725 3.36892 7.3125 3.36938Z" fill="#A1A1AA"/>
  <path d="M15.1878 16.8469C15.114 16.8478 15.0408 16.8332 14.973 16.8041C14.9052 16.7751 14.8442 16.7322 14.794 16.6781L10.9915 12.8756C10.7665 12.6506 10.7665 12.3019 10.9915 12.0769C11.2165 11.8519 11.5653 11.8519 11.7903 12.0769L15.5928 15.8794C15.8178 16.1044 15.8178 16.4531 15.5928 16.6781C15.4803 16.7906 15.334 16.8469 15.199 16.8469H15.1878Z" fill="#A1A1AA"/>
</svg>